<?xml version="1.0" encoding="utf-8"?>
<svg version="1.1" xmlns:xlink="http://www.w3.org/1999/xlink" width="170px" height="120px" xmlns="http://www.w3.org/2000/svg">
  <g transform="matrix(1 0 0 1 -290 -102 )">
    <path d="M 140.99051335937497 12.321428554687486  C 140.99051335937497 5.357142890624971  146.34765625 0  153.31194191406246 0  C 160.27622757812503 0  165.63337046875 5.357142890625028  165.63337058593748 12.321428554687486  C 165.63337070312497 19.28571421875  160.2762276953125 24.642857109374972  153.31194191406246 24.642857109374972  C 146.34765625 24.642857109374972  140.99051335937497 19.28571421875  140.99051335937497 12.321428554687486  Z M 81.52622769531251 79.28571433593748  C 71.34765625 79.28571445312502  65.45479914062497 73.39285722656251  66 62.14285710937497  L 66 17.678571445312514  C 66 6.428571445312514  71.34765625 0  82.06194191406246 0  C 92.24051335937497 0  97.59765625 5.892857109374972  97.59765625 17.142857109374972  L 97.59765625 19  L 87.41908480468747 19  L 87.41908480468747 16.607142890625028  C 87.41908480468747 11.785714335937485  85.2762276953125 10.178571445312514  82.06194191406246 10.178571445312514  C 78.31194191406246 10.178571445312514  76.16908480468749 11.785714335937485  77 18.214285664062515  L 77 34.285714335937485  C 77.77622769531251 30.535714335937485  81.52622769531251 28.392857226562512  85.81194191406246 28.392857109374972  C 93.84765625 28.392857109374972  97.59765625 33.75  97 43.928571445312514  L 97 62.14285710937497  C 97.59765625 72.85714277343749  91.70479914062497 79.28571421875  81.52622769531251 79.28571433593748  Z M 135 61.60714289062503  C 135.63337058593748 72.32142855468749  129.74051347656246 78.75  119.56194191406246 78.75  C 109.38337035156253 78.75  103.49051335937497 72.85714289062503  103 61.60714289062503  L 103 17.142857109374972  C 103.49051335937497 6.428571445312514  109.38337046874999 0  119.56194191406246 0  C 129.74051335937497 0  135.63337046875 5.892857109374972  135 17.142857109374972  L 135 61.60714289062503  Z M 169.38337058593748 74.46428566406252  C 169.38337058593748 79.28571421875006  167.24051347656246 84.10714277343754  162.95479914062503 88.39285710937503  C 159.20479914062503 92.14285710937503  153.84765625 95.35714277343754  146.88337058593748 98.03571433593754  C 134.0262276953125 103.92857144531251  115.81194203124994 107.67857144531251  95.99051335937497 108.21428566406252  C 93.84765625 108.21428566406252  91.70479902343747 106.60714277343749  91.70479914062503 103.92857144531251  C 91.70479914062503 101.78571433593754  93.31194203125 99.64285710937503  95.99051335937497 99.10714289062503  C 114.74051335937497 98.03571433593748  131.34765625 94.82142855468749  143.6690848046875 90  C 154.9190848046875 85.71428566406252  160.81194191406246 80.35714289062503  160.81194191406246 75  C 160.81194191406246 70.71428566406252  155.99051335937497 65.35714289062503  146.88337058593748 61.07142855468749  C 144.74051347656246 60  143.66908492187497 57.321428554687486  144.74051335937497 55.178571445312514  C 145.81194191406246 53.03571433593754  148.49051335937497 51.96428578125  150.63337058593748 53.03571433593754  C 166.16908492187497 60.535714335937534  169.38337058593748 69.10714289062503  169.38337058593748 74.46428566406252  Z M 57.95479914062503 118.39285710937497  L 72.41908480468749 107.67857144531251  C 73.49051335937503 107.14285710937497  74.02622769531251 106.07142855468749  74.02622769531251 105  C 74.02622769531251 103.92857144531251  74.02622769531251 103.39285710937497  73.49051335937497 102.32142855468749  L 62.77622769531245 87.32142855468749  C 61.169084804687486 85.17857144531251  58.49051335937498 84.64285710937503  56.883370585937485 86.25  C 54.74051347656251 87.85714289062503  54.20479914062498 90.53571433593748  55.81194191406246 92.14285710937497  L 60.09765625 98.03571433593748  C 46.169084804687486 96.42857144531251  33.84765625 93.21428578125  24.740513359374972 89.46428566406246  C 14.561941914062517 85.17857132812497  9.204799023437488 79.82142855468749  9.204799140625028 75  C 9.204799140625028 69.64285710937497  15.633370585937485 65.35714289062497  19.383370585937485 63.214285664062466  C 21.526227695312514 62.14285710937497  22.06194203125 59.46428566406246  20.990513359374972 57.321428554687486  C 19.919084804687486 55.178571445312514  17.240513359374972 54.64285710937497  15.09765625 55.71428566406246  C 8.133370585937485 59.464285664062515  0.09765625 65.89285710937497  0.09765625 75  C 0.09765625 80.89285710937497  3.84765625 90  20.990513359374972 97.5  C 31.169084804687483 101.78571433593748  44.026227695312514 105  59.026227695312514 107.14285710937497  L 52.59765625 111.96428566406252  C 50.45479914062503 113.57142855468749  49.919084804687486 116.25  51.526227695312514 117.85714289062503  C 52.59765625 118.92857144531251  53.669084804687486 119.46428578125  55.27622769531252 119.46428566406252  C 56.34765625000001 119.46428566406252  56.88337058593754 119.46428566406252  57.95479914062503 118.39285710937497  Z M 38.133370585937485 32.14285710937497  L 42.419084804687486 32.14285710937497  C 46.169084804687486 32.14285710937497  48.84765625 30.53571421875  48.84765625 25.178571445312514  L 48.84765625 17.678571445312514  C 48.84765625 11.785714335937485  46.70479914062503 10.178571445312514  43.49051335937497 10.178571445312514  C 40.276227578124974 10.178571445312514  38.13337046875 11.785714335937485  38.133370585937485 16.607142890625028  L 38.133370585937485 21  L 27.954799140625024 21  L 27.954799140625024 17.142857109374972  C 27.954799140625024 6.428571445312514  33.31194203125 0  43.49051335937497 0  C 53.6690846875 0  59.026227695312514 5.892857109374972  59.026227695312514 17.142857109374972  L 59.026227695312514 22.5  C 59.026227695312514 29.464285664062515  56.883370585937485 34.285714335937485  51.526227695312514 36.428571445312514  C 56.883370585937485 38.571428554687486  59.026227695312514 43.928571445312514  59 50.35714289062503  L 59 61.60714289062503  C 59.026227695312514 72.32142855468749  53.669084804687486 78.75  43.49051335937497 78.75  C 33.311941914062515 78.75  27.954799023437488 72.85714289062503  28 61.60714289062503  L 28 50  L 39 50  L 39 62.67857144531251  C 38.133370585937485 67.5  40.276227695312514 69.10714289062503  43.49051335937497 69.10714289062503  C 46.70479902343749 69.10714289062503  48.84765625 67.5  49 61.60714289062503  L 49 50.35714289062503  C 48.84765625 43.928571445312514  46.70479914062503 41.78571433593754  41.883370585937485 41.78571433593754  L 38.133370585937485 41.78571433593754  L 38.133370585937485 32.14285710937497  Z M 149.0262276953125 12.857142890625028  C 149.0262278125 15.535714335937486  150.63337058593748 17.142857226562512  153.31194191406246 17.142857109374972  C 155.9905132421875 17.14285699218749  157.59765625 15.535714218750003  157.59765625 12.857142890625028  C 157.59765625 10.178571562499997  155.99051335937497 8.571428554687486  153.31194191406246 8.571428554687486  C 151.1690848046875 8.571428554687486  149.02622757812497 10.178571445312514  149.0262276953125 12.857142890625028  Z M 87 62.67857144531251  L 87 44.46428566406246  C 86.88337058593748 39.64285710937497  84.74051347656251 38.03571421875  81.52622769531251 38.035714335937485  C 78.31194191406246 38.035714453125024  76.16908480468749 39.64285722656251  77 44.464285664062515  L 77 62.67857144531251  C 76.16908480468749 67.5  78.31194191406246 69.10714289062503  81.52622769531251 69.10714289062503  C 84.74051347656251 69.10714289062503  86.88337058593748 67.5  87 62.67857144531251  Z M 125 16.607142890625028  C 124.91908480468747 11.785714335937485  122.77622769531253 10.178571445312514  119.56194191406246 10.178571445312514  C 116.34765613281252 10.178571445312514  114.20479902343749 11.785714335937485  114 16.607142890625028  L 114 62.67857144531251  C 114.20479914062504 67.5  116.34765625000001 69.10714289062503  119.56194191406246 69.10714289062503  C 122.77622757812505 69.10714289062503  124.91908480468747 67.5  125 62.67857144531251  L 125 16.607142890625028  Z " fill-rule="nonzero" fill="#ffffff" stroke="none" transform="matrix(1 0 0 1 290 102 )" />
  </g>
</svg>