<?xml version="1.0" encoding="utf-8"?>
<svg version="1.1" xmlns:xlink="http://www.w3.org/1999/xlink" width="46px" height="46px" xmlns="http://www.w3.org/2000/svg">
  <g transform="matrix(1 0 0 1 -352 -1410 )">
    <path d="M 41.69900000000001 1.0464999999999236  L 22.999999999241822 19.74549999924193  L 4.300999999999988 1.0464999999999236  C 3.8688341597651292 0.6117546925256647  3.2810012723484765 0.3675142674721883  2.6680000000000064 0.36799999999993815  C 1.3977450753891958 0.36799999999993815  0.366163114463518 1.3977443418784787  0.366163114463518 2.6679992664892325  C 0.366163114463518 3.2812659612336574  0.6110804511499168 3.869136763127699  1.0464999999999804 4.300999999999931  L 19.74541942943341 23.000080570566524  L 1.0464999999999804 41.69900000000007  C 0.6149264669086278 42.130573533091365  0.3724709806284068 42.715912856340765  0.3724709806284068 43.32625000000007  C 0.3724709806284068 44.597211307504494  1.4027886924955055 45.62752901937165  2.673749999999984 45.62752901937165  C 3.284087143659122 45.62752901937165  3.8694264669085783 45.38507353309137  4.300999999999988 44.953500000000076  L 23.000000000758178 26.25450000075807  L 41.69900000000001 44.953500000000076  C 42.13116584023487 45.388245307474335  42.718998727651524 45.63248573252781  43.331999999999994 45.63200000000006  C 44.60225492461086 45.63200000000006  45.63383688553648 44.60225565812152  45.63383688553648 43.33200073351077  C 45.63383688553648 42.71873403876634  45.38891954885008 42.1308632368723  44.95350000000002 41.69900000000007  L 26.254580570566585 22.999919429433476  L 44.95350000000002 4.300999999999931  C 45.38891954885008 3.869136763127699  45.63383688553648 3.2812659612336574  45.63383688553648 2.6679992664892325  C 45.63383688553648 1.3977443418784787  44.60409181014728 0.367999266489278  43.33383688553647 0.367999266489278  C 42.720835613188 0.3675135339615281  42.13116584023487 0.6117546925256647  41.69900000000001 1.0464999999999236  Z " fill-rule="nonzero" fill="#ffffff" stroke="none" transform="matrix(1 0 0 1 352 1410 )" />
  </g>
</svg>